<?xml version="1.0" encoding="UTF-8"?>
<svg xmlns="http://www.w3.org/2000/svg" version="1.1" xmlns:xlink="http://www.w3.org/1999/xlink" viewBox="0 0 1280 640">
  <!-- Generator: Adobe Illustrator 29.3.1, SVG Export Plug-In . SVG Version: 2.1.0 Build 151)  -->
  <defs>
    <style>
      .st0 {
        filter: url(#GaussianBlur_301);
      }

      .st1, .st2, .st3 {
        opacity: .33;
      }

      .st4 {
        fill: #2d91b2;
      }

      .st5 {
        fill: url(#Gold_gradient_11);
      }

      .st6 {
        clip-path: url(#clippath-4);
      }

      .st7 {
        fill: #fff;
      }

      .st8 {
        filter: url(#GaussianBlur_102);
      }

      .st9 {
        filter: url(#GaussianBlur_101);
      }

      .st10 {
        fill: none;
      }

      .st2 {
        fill: url(#Gold_gradient_1);
      }

      .st11 {
        fill: #e59900;
      }

      .st12 {
        clip-path: url(#clippath-1);
      }

      .st3 {
        fill: url(#Blue_gradient_2);
      }

      .st13 {
        fill: url(#Blue_gradient_1);
      }

      .st14 {
        clip-path: url(#clippath-3);
      }

      .st15 {
        fill: #1a1a1a;
      }

      .st16 {
        filter: url(#GaussianBlur_30);
      }

      .st17 {
        fill: #b3b3b3;
      }

      .st18 {
        fill: url(#Blue_gradient_21);
      }

      .st19 {
        filter: url(#GaussianBlur_10);
      }

      .st20 {
        fill: url(#Gold_gradient_2);
      }

      .st21 {
        clip-path: url(#clippath-2);
      }

      .st22 {
        clip-path: url(#clippath);
      }

      .st23 {
        opacity: .5;
      }
    </style>
    <clipPath id="clippath">
      <polygon class="st10" points="986.7 0 72.7 640 0 640 0 460.6 657.79 0 986.7 0"/>
    </clipPath>
    <filter id="GaussianBlur_30">
      <feGaussianBlur in="SourceGraphic" stdDeviation="30"/>
    </filter>
    <linearGradient id="Blue_gradient_2" data-name="Blue gradient 2" x1="-54.103" y1="383.323" x2="603.681" y2="-77.262" gradientUnits="userSpaceOnUse">
      <stop offset="0" stop-color="#2d91b2"/>
      <stop offset="1" stop-color="#00204c"/>
    </linearGradient>
    <clipPath id="clippath-1">
      <polygon class="st10" points="657.78 0 0 460.59 0 230.29 328.89 0 657.78 0"/>
    </clipPath>
    <filter id="GaussianBlur_301" data-name="GaussianBlur_30">
      <feGaussianBlur in="SourceGraphic" stdDeviation="30"/>
    </filter>
    <linearGradient id="Gold_gradient_1" data-name="Gold gradient 1" x1="-54.097" y1="153.021" x2="274.781" y2="-77.262" gradientUnits="userSpaceOnUse">
      <stop offset="0" stop-color="#ffd24c"/>
      <stop offset="1" stop-color="#e58600"/>
    </linearGradient>
    <linearGradient id="Blue_gradient_21" data-name="Blue gradient 2" x1="134.052" y1="368.312" x2="440" y2="368.312" xlink:href="#Blue_gradient_2"/>
    <clipPath id="clippath-2">
      <path class="st10" d="M425.836,253.168h-174.864l33.047-96.624h-48.039l-33.047,96.624h-108.769l-14.164,45.454h107.387l-53.335,155.94,38.157,28.894,267.791-184.833-14.163-45.454ZM235.426,298.622h124.555l-163.045,112.536,38.49-112.536Z"/>
    </clipPath>
    <filter id="GaussianBlur_10">
      <feGaussianBlur in="SourceGraphic" stdDeviation="10"/>
    </filter>
    <linearGradient id="Gold_gradient_2" data-name="Gold gradient 2" x1="235.98" y1="320" x2="385.948" y2="320" gradientUnits="userSpaceOnUse">
      <stop offset="0" stop-color="#e59900"/>
      <stop offset="1" stop-color="#b25900"/>
    </linearGradient>
    <clipPath id="clippath-3">
      <path class="st10" d="M440,298.622l-14.163-45.454-87.996,60.736-53.82-157.36h-48.039l-101.928,298.018,38.157,28.894,142.048-98.044,33.533,98.044,38.157-28.894-32.826-95.976,86.878-59.964ZM196.936,411.158l63.064-184.385,38.975,113.956-102.039,70.429Z"/>
    </clipPath>
    <filter id="GaussianBlur_101" data-name="GaussianBlur_10">
      <feGaussianBlur in="SourceGraphic" stdDeviation="10"/>
    </filter>
    <linearGradient id="Blue_gradient_1" data-name="Blue gradient 1" x1="80" y1="275.895" x2="440" y2="275.895" gradientUnits="userSpaceOnUse">
      <stop offset="0" stop-color="#6bc"/>
      <stop offset="1" stop-color="#00468c"/>
    </linearGradient>
    <clipPath id="clippath-4">
      <path class="st10" d="M440,298.622l-14.163-45.454h-108.77l-33.047-96.624h-48.039l33.047,96.624H94.164l-14.164,45.454h204.574l14.402,42.107-164.923,113.833,38.157,28.894,142.048-98.044,33.533,98.044,38.157-28.894-32.826-95.976,86.878-59.964ZM332.613,298.622h27.368l-22.141,15.282-5.227-15.282Z"/>
    </clipPath>
    <filter id="GaussianBlur_102" data-name="GaussianBlur_10">
      <feGaussianBlur in="SourceGraphic" stdDeviation="10"/>
    </filter>
    <linearGradient id="Gold_gradient_11" data-name="Gold gradient 1" x1="148.004" y1="244.521" x2="279.574" y2="376.091" xlink:href="#Gold_gradient_1"/>
  </defs>
  <g id="Background">
    <rect class="st15" width="1280" height="640"/>
  </g>
  <g id="Frezies">
    <g class="st1">
      <g class="st22">
        <g class="st16">
          <polygon points="657.78 0 0 460.59 0 230.29 328.89 0 657.78 0"/>
          <rect y="620" width="20" height="20"/>
          <rect x="1260" y="620" width="20" height="20"/>
          <rect x="1260" width="20" height="20"/>
        </g>
      </g>
    </g>
    <polygon class="st3" points="657.78 0 0 460.59 0 230.29 328.89 0 657.78 0"/>
    <g class="st23">
      <g class="st12">
        <g class="st0">
          <polygon points="328.88 0 0 230.28 0 0 328.88 0"/>
          <rect y="620" width="20" height="20"/>
          <rect x="1260" y="620" width="20" height="20"/>
          <rect x="1260" width="20" height="20"/>
        </g>
      </g>
    </g>
    <polygon class="st2" points="328.88 0 0 230.28 0 0 328.88 0"/>
  </g>
  <g id="Logo">
    <g>
      <rect class="st10" x="80" y="140" width="360" height="360"/>
      <polygon class="st18" points="172.209 483.456 134.052 454.562 425.836 253.168 440 298.622 172.209 483.456"/>
      <g class="st23">
        <g class="st21">
          <g class="st19">
            <polygon points="235.98 156.544 347.791 483.456 385.948 454.562 284.02 156.544 235.98 156.544"/>
            <rect x="79.492" y="139.401" width="14.4" height="14.4"/>
            <rect x="425.6" y="485.6" width="14.4" height="14.4"/>
            <rect x="79.492" y="485.6" width="14.4" height="14.4"/>
            <rect x="425.6" y="140" width="14.4" height="14.4"/>
          </g>
        </g>
      </g>
      <polygon class="st20" points="235.98 156.544 347.791 483.456 385.948 454.562 284.02 156.544 235.98 156.544"/>
      <g class="st23">
        <g class="st14">
          <g class="st9">
            <polygon points="94.164 253.168 80 298.622 440 298.622 425.836 253.168 94.164 253.168"/>
            <rect x="79.492" y="139.401" width="14.4" height="14.4"/>
            <rect x="425.6" y="485.6" width="14.4" height="14.4"/>
            <rect x="79.492" y="485.6" width="14.4" height="14.4"/>
            <rect x="425.6" y="140" width="14.4" height="14.4"/>
          </g>
        </g>
      </g>
      <polygon class="st13" points="425.836 253.168 94.164 253.168 80 298.622 440 298.622 425.836 253.168"/>
      <g class="st23">
        <g class="st6">
          <g class="st8">
            <polygon points="134.052 454.562 172.209 483.456 284.02 156.544 235.98 156.544 134.052 454.562"/>
            <rect x="79.492" y="139.401" width="14.4" height="14.4"/>
            <rect x="425.6" y="485.6" width="14.4" height="14.4"/>
            <rect x="79.492" y="485.6" width="14.4" height="14.4"/>
            <rect x="425.6" y="140" width="14.4" height="14.4"/>
          </g>
        </g>
      </g>
      <polygon class="st5" points="172.209 483.456 134.052 454.562 235.98 156.544 284.02 156.544 172.209 483.456"/>
    </g>
  </g>
  <g id="Title">
    <g>
      <path class="st11" d="M526.57,330.862l44.96-110.08h8.96l44.641,110.08h-12.801l-38.72-97.12h4.64l-39.199,97.12h-12.48ZM547.209,302.222v-10.24h57.601v10.24h-57.601Z"/>
      <path class="st7" d="M670.729,332.463c-8.641,0-16.056-1.601-22.24-4.801-6.188-3.199-11.576-7.785-16.161-13.76l8.16-8c3.733,5.228,8.081,9.12,13.041,11.68,4.96,2.56,10.853,3.84,17.68,3.84,7.04,0,12.72-1.601,17.04-4.801,4.32-3.2,6.48-7.625,6.48-13.28,0-4.373-.988-7.973-2.961-10.8-1.975-2.825-4.614-5.12-7.92-6.88-3.307-1.76-6.907-3.333-10.8-4.72-3.895-1.385-7.814-2.853-11.76-4.4-3.947-1.545-7.548-3.465-10.8-5.76-3.255-2.292-5.896-5.28-7.92-8.96-2.028-3.68-3.041-8.345-3.041-14,0-5.973,1.439-11.092,4.32-15.36,2.881-4.265,6.853-7.545,11.92-9.84,5.065-2.292,10.801-3.44,17.2-3.44,7.146,0,13.521,1.388,19.12,4.16,5.601,2.775,10.266,6.507,14,11.2l-8.16,8.16c-3.415-4.16-7.147-7.28-11.199-9.36-4.056-2.08-8.748-3.12-14.08-3.12-6.4,0-11.521,1.495-15.36,4.48-3.84,2.988-5.76,7.147-5.76,12.48,0,4.055.984,7.36,2.96,9.92,1.973,2.56,4.612,4.695,7.92,6.4,3.305,1.708,6.905,3.228,10.8,4.56,3.893,1.335,7.812,2.8,11.76,4.4,3.945,1.6,7.545,3.627,10.8,6.08,3.253,2.455,5.893,5.575,7.921,9.36,2.024,3.788,3.04,8.615,3.04,14.48,0,9.495-3.228,16.88-9.681,22.161-6.455,5.279-15.228,7.92-26.319,7.92Z"/>
      <path class="st7" d="M718.887,265.902v-10.24h49.12v10.24h-49.12ZM737.767,330.862v-106.88h11.36v106.88h-11.36Z"/>
      <path class="st7" d="M815.846,332.463c-7.04,0-13.388-1.732-19.04-5.2-5.655-3.465-10.135-8.133-13.439-14-3.308-5.865-4.96-12.48-4.96-19.84,0-7.465,1.652-14.16,4.96-20.08,3.305-5.92,7.76-10.612,13.359-14.08,5.601-3.465,11.92-5.2,18.96-5.2,5.761,0,10.905,1.147,15.44,3.44,4.532,2.295,8.24,5.495,11.12,9.6,2.88,4.107,4.585,8.88,5.12,14.32v23.52c-.641,5.44-2.375,10.24-5.2,14.4-2.828,4.161-6.48,7.388-10.96,9.68-4.48,2.293-9.601,3.44-15.36,3.44ZM817.605,321.742c7.893,0,14.186-2.612,18.881-7.84,4.692-5.225,7.039-12.105,7.039-20.64,0-5.652-1.067-10.612-3.199-14.88-2.136-4.265-5.176-7.6-9.12-10-3.947-2.4-8.535-3.6-13.76-3.6s-9.896,1.228-14,3.68c-4.108,2.455-7.36,5.815-9.761,10.08-2.399,4.267-3.6,9.175-3.6,14.72s1.2,10.455,3.6,14.72c2.4,4.268,5.681,7.627,9.84,10.08,4.16,2.455,8.853,3.68,14.08,3.68ZM842.886,330.862v-20.16l2.24-18.56-2.24-18.08v-18.4h11.36v75.2h-11.36Z"/>
      <path class="st7" d="M876.646,330.862v-75.2h11.359v75.2h-11.359ZM888.005,287.022l-4.64-1.92c0-9.6,2.32-17.173,6.96-22.72,4.64-5.545,11.013-8.32,19.12-8.32,3.732,0,7.145.667,10.24,2,3.092,1.335,5.973,3.44,8.64,6.32l-7.52,7.84c-1.708-1.92-3.655-3.305-5.841-4.16-2.188-.853-4.667-1.28-7.439-1.28-5.76,0-10.455,1.868-14.08,5.6-3.628,3.735-5.44,9.28-5.44,16.64Z"/>
      <path class="st4" d="M942.726,332.463c-2.668,0-4.855-.908-6.561-2.721-1.707-1.812-2.56-4-2.56-6.56s.853-4.72,2.56-6.48c1.705-1.76,3.893-2.64,6.561-2.64,2.56,0,4.692.88,6.399,2.64,1.705,1.76,2.561,3.92,2.561,6.48s-.855,4.747-2.561,6.56c-1.707,1.812-3.84,2.721-6.399,2.721Z"/>
      <path class="st4" d="M976.963,330.862v-75.2h11.359v75.2h-11.359ZM1031.843,330.862v-44.16c0-6.505-1.975-11.812-5.92-15.92-3.947-4.105-9.12-6.16-15.521-6.16-4.268,0-8.055.935-11.359,2.8-3.308,1.868-5.92,4.455-7.84,7.76-1.921,3.308-2.881,7.095-2.881,11.36l-5.119-2.88c0-5.652,1.332-10.72,4-15.2,2.665-4.48,6.292-8,10.88-10.56,4.585-2.56,9.76-3.84,15.52-3.84s10.88,1.387,15.36,4.16c4.479,2.775,7.973,6.508,10.479,11.2,2.505,4.695,3.761,9.815,3.761,15.36v46.08h-11.36Z"/>
      <path class="st4" d="M1098.721,332.463c-7.468,0-14.188-1.705-20.16-5.12-5.975-3.413-10.694-8.105-14.16-14.081-3.467-5.972-5.199-12.692-5.199-20.16,0-7.36,1.68-14,5.04-19.92,3.359-5.92,7.972-10.585,13.84-14,5.864-3.412,12.425-5.12,19.68-5.12,6.933,0,13.04,1.547,18.32,4.64,5.279,3.095,9.439,7.388,12.479,12.88,3.04,5.495,4.561,11.815,4.561,18.96,0,.855-.056,1.84-.16,2.96-.107,1.12-.32,2.427-.641,3.92h-65.119v-9.6h58.88l-4,3.52c.104-5.44-.828-10.16-2.8-14.16-1.976-4-4.801-7.12-8.48-9.36-3.68-2.24-8.08-3.36-13.2-3.36-5.439,0-10.188,1.2-14.24,3.6-4.055,2.4-7.228,5.708-9.52,9.92-2.295,4.215-3.44,9.147-3.44,14.8,0,5.76,1.2,10.828,3.601,15.2,2.399,4.375,5.76,7.788,10.08,10.24,4.319,2.455,9.305,3.68,14.96,3.68,4.479,0,8.64-.825,12.479-2.48,3.84-1.652,7.093-4.132,9.761-7.44l7.359,7.36c-3.52,4.268-7.895,7.52-13.12,9.76-5.228,2.24-10.827,3.36-16.8,3.36Z"/>
      <path class="st4" d="M1142.881,265.902v-10.24h49.12v10.24h-49.12ZM1161.761,330.862v-106.88h11.36v106.88h-11.36Z"/>
    </g>
    <g>
      <path class="st17" d="M528.061,411.955l12.362-30.269h2.464l12.274,30.269h-3.52l-10.647-26.705h1.276l-10.778,26.705h-3.432ZM533.736,404.08v-2.815h15.838v2.815h-15.838Z"/>
      <path class="st17" d="M571.395,412.396c-.734,0-1.335-.25-1.804-.748-.469-.499-.704-1.101-.704-1.804s.234-1.298.704-1.782,1.07-.726,1.804-.726c.704,0,1.29.241,1.76.726.469.484.704,1.078.704,1.782s-.235,1.305-.704,1.804c-.47.498-1.056.748-1.76.748Z"/>
      <path class="st17" d="M581.556,411.955v-30.269h2.332l.924,3.828v26.44h-3.255ZM602.498,411.955l-19.094-25.957.484-4.312,19.094,25.957-.484,4.312ZM602.498,411.955l-.924-3.651v-26.617h3.255v30.269h-2.332Z"/>
      <path class="st17" d="M612.484,411.955v-30.269h3.255v30.269h-3.255ZM614.64,384.635v-2.948h17.554v2.948h-17.554ZM614.64,397.877v-2.859h16.41v2.859h-16.41ZM614.64,411.955v-2.947h17.818v2.947h-17.818Z"/>
      <path class="st17" d="M636.153,384.635v-2.948h24.593v2.948h-24.593ZM646.844,411.955v-29.433h3.256v29.433h-3.256Z"/>
      <path class="st17" d="M674.165,411.955v-31.148h3.123v31.148h-3.123Z"/>
      <path class="st17" d="M685.074,386.834c-.587,0-1.085-.22-1.495-.66-.411-.439-.616-.952-.616-1.539,0-.616.205-1.129.616-1.54s.908-.616,1.495-.616c.646,0,1.166.206,1.562.616.396.411.594.924.594,1.54,0,.587-.198,1.1-.594,1.539-.396.44-.917.66-1.562.66ZM683.535,411.955v-20.678h3.123v20.678h-3.123Z"/>
      <path class="st17" d="M692.862,411.955v-31.148h3.123v15.53l-.616,4.972.616,5.104v5.543h-3.123ZM703.597,412.396c-1.584,0-3.007-.323-4.268-.969-1.262-.645-2.295-1.532-3.102-2.661-.808-1.129-1.298-2.441-1.474-3.938v-6.468c.176-1.524.674-2.852,1.495-3.981.821-1.128,1.87-2.001,3.146-2.617,1.275-.616,2.676-.924,4.201-.924,1.906,0,3.622.477,5.147,1.43,1.524.953,2.734,2.244,3.629,3.871.895,1.628,1.342,3.469,1.342,5.521,0,2.024-.439,3.843-1.319,5.455-.88,1.614-2.09,2.897-3.63,3.85-1.54.954-3.263,1.431-5.169,1.431ZM703.024,409.447c1.467,0,2.757-.33,3.872-.99,1.114-.659,1.994-1.583,2.64-2.771.645-1.188.968-2.544.968-4.069s-.323-2.882-.968-4.069c-.646-1.188-1.519-2.111-2.618-2.771s-2.369-.99-3.806-.99-2.705.33-3.806.99c-1.1.66-1.957,1.584-2.573,2.771s-.924,2.545-.924,4.069.308,2.882.924,4.069c.616,1.188,1.466,2.112,2.552,2.771,1.085.66,2.332.99,3.739.99Z"/>
      <path class="st17" d="M718.555,411.955v-20.678h3.123v20.678h-3.123ZM721.678,399.9l-1.275-.527c0-2.64.638-4.723,1.913-6.248,1.276-1.524,3.028-2.287,5.258-2.287,1.026,0,1.965.184,2.815.55.851.367,1.643.946,2.376,1.737l-2.068,2.156c-.469-.528-1.005-.909-1.605-1.144-.602-.234-1.283-.353-2.046-.353-1.584,0-2.875.514-3.871,1.54-.998,1.027-1.496,2.552-1.496,4.575Z"/>
      <path class="st17" d="M744.247,412.396c-1.936,0-3.682-.477-5.235-1.431-1.555-.952-2.787-2.235-3.695-3.85-.91-1.612-1.364-3.431-1.364-5.455,0-2.053.454-3.894,1.364-5.521.908-1.627,2.134-2.918,3.673-3.871,1.54-.953,3.278-1.43,5.214-1.43,1.584,0,2.998.315,4.245.945,1.246.632,2.266,1.512,3.058,2.64.792,1.13,1.261,2.442,1.408,3.938v6.468c-.176,1.496-.653,2.815-1.43,3.959-.778,1.145-1.782,2.031-3.014,2.662-1.232.63-2.64.946-4.224.946ZM744.73,409.447c2.171,0,3.9-.718,5.191-2.155s1.937-3.329,1.937-5.676c0-1.554-.294-2.918-.88-4.092-.588-1.172-1.424-2.089-2.508-2.749-1.086-.66-2.348-.99-3.784-.99s-2.721.338-3.85,1.012c-1.129.676-2.023,1.6-2.684,2.772-.659,1.173-.989,2.522-.989,4.047s.33,2.875.989,4.048c.66,1.173,1.562,2.097,2.706,2.771s2.434,1.012,3.871,1.012ZM751.682,411.955v-5.543l.616-5.104-.616-4.972v-5.06h3.124v20.678h-3.124Z"/>
      <path class="st17" d="M760.965,411.955v-20.678h3.123v20.678h-3.123ZM764.088,399.9l-1.275-.527c0-2.64.638-4.723,1.913-6.248,1.276-1.524,3.028-2.287,5.258-2.287,1.026,0,1.965.184,2.815.55.851.367,1.643.946,2.376,1.737l-2.068,2.156c-.469-.528-1.005-.909-1.605-1.144-.602-.234-1.283-.353-2.046-.353-1.584,0-2.875.514-3.871,1.54-.998,1.027-1.496,2.552-1.496,4.575Z"/>
      <path class="st17" d="M784.896,412.087l-9.106-20.81h3.432l7.303,17.334h-1.275l7.655-17.334h3.476l-9.723,20.81h-1.761ZM779.222,420.666l5.72-11.746,1.716,3.167-4.004,8.579h-3.432Z"/>
      <path class="st17" d="M807.686,394.094v-2.816h15.267v2.816h-15.267ZM812.921,411.955v-24.153c0-1.466.314-2.756.946-3.871.63-1.114,1.51-1.986,2.64-2.618,1.128-.63,2.412-.945,3.85-.945,1.114,0,2.097.198,2.947.594s1.628.946,2.332,1.649l-2.068,2.068c-.439-.469-.917-.821-1.43-1.056-.514-.234-1.107-.353-1.781-.353-1.379,0-2.442.411-3.19,1.232-.747.821-1.121,1.936-1.121,3.343v24.109h-3.124Z"/>
      <path class="st17" d="M836.633,412.396c-2.023,0-3.843-.484-5.455-1.452-1.613-.968-2.896-2.272-3.85-3.916-.953-1.642-1.43-3.476-1.43-5.499,0-1.994.477-3.798,1.43-5.411s2.236-2.896,3.85-3.85c1.612-.953,3.432-1.43,5.455-1.43,1.994,0,3.806.47,5.434,1.407,1.628.939,2.918,2.222,3.871,3.85s1.431,3.439,1.431,5.434c0,2.054-.478,3.894-1.431,5.521s-2.243,2.926-3.871,3.894-3.439,1.452-5.434,1.452ZM836.633,409.403c1.437,0,2.728-.337,3.872-1.012,1.144-.675,2.038-1.612,2.684-2.815.645-1.202.968-2.552.968-4.048,0-1.466-.33-2.778-.99-3.938-.659-1.158-1.555-2.074-2.684-2.75-1.129-.674-2.413-1.012-3.85-1.012s-2.728.338-3.871,1.012c-1.144.676-2.039,1.592-2.684,2.75-.646,1.159-.968,2.472-.968,3.938,0,1.525.322,2.882.968,4.069.645,1.188,1.54,2.119,2.684,2.794s2.434,1.012,3.871,1.012Z"/>
      <path class="st17" d="M852.208,411.955v-20.678h3.123v20.678h-3.123ZM855.331,399.9l-1.275-.527c0-2.64.638-4.723,1.913-6.248,1.276-1.524,3.028-2.287,5.258-2.287,1.026,0,1.965.184,2.815.55.851.367,1.643.946,2.376,1.737l-2.068,2.156c-.469-.528-1.005-.909-1.605-1.144-.602-.234-1.283-.353-2.046-.353-1.584,0-2.875.514-3.871,1.54-.998,1.027-1.496,2.552-1.496,4.575Z"/>
      <path class="st17" d="M877.899,394.094v-2.816h13.507v2.816h-13.507ZM883.091,411.955v-29.389h3.124v29.389h-3.124Z"/>
      <path class="st17" d="M895.585,411.955v-31.148h3.123v31.148h-3.123ZM910.675,411.955v-12.143c0-1.788-.543-3.248-1.628-4.377-1.086-1.129-2.508-1.694-4.268-1.694-1.174,0-2.215.257-3.124.771-.909.513-1.627,1.225-2.155,2.133-.528.91-.792,1.951-.792,3.124l-1.408-.792c0-1.554.367-2.947,1.101-4.18.732-1.231,1.73-2.199,2.991-2.903s2.684-1.056,4.268-1.056,2.991.359,4.224,1.078c1.231.719,2.192,1.708,2.882,2.969.688,1.262,1.033,2.729,1.033,4.399v12.671h-3.123Z"/>
      <path class="st17" d="M929.063,412.396c-2.053,0-3.9-.47-5.543-1.408s-2.94-2.229-3.894-3.872c-.953-1.642-1.43-3.489-1.43-5.543,0-2.023.462-3.85,1.386-5.478s2.192-2.91,3.806-3.85c1.612-.938,3.416-1.407,5.411-1.407,1.906,0,3.586.426,5.037,1.275,1.452.852,2.596,2.031,3.432,3.542s1.254,3.249,1.254,5.213c0,.235-.015.506-.044.814-.029.308-.088.667-.176,1.077h-17.905v-2.64h16.189l-1.1.969c.028-1.496-.228-2.794-.771-3.894-.543-1.101-1.319-1.958-2.331-2.574s-2.222-.924-3.63-.924c-1.496,0-2.801.33-3.915.99-1.115.659-1.987,1.569-2.618,2.728-.631,1.159-.945,2.515-.945,4.069,0,1.584.329,2.978.989,4.18.66,1.203,1.584,2.141,2.771,2.815,1.188.675,2.559,1.012,4.114,1.012,1.231,0,2.375-.227,3.431-.682,1.057-.454,1.95-1.137,2.685-2.046l2.023,2.023c-.968,1.174-2.171,2.068-3.607,2.684-1.438.616-2.978.925-4.62.925Z"/>
      <path class="st17" d="M949.962,411.955l12.362-30.269h2.464l12.274,30.269h-3.52l-10.646-26.705h1.275l-10.778,26.705h-3.432ZM955.637,404.08v-2.815h15.839v2.815h-15.839Z"/>
      <path class="st17" d="M983.529,396.249l-.484-6.995-5.983,3.695-1.363-2.64,6.555-2.596-5.411-4.443,2.112-2.111,4.531,5.323,2.64-6.468,2.684,1.364-3.783,5.896,7.127.483-.44,2.904-6.951-1.716,1.716,6.863-2.947.439Z"/>
      <path class="st17" d="M1016.217,412.396c-1.936,0-3.682-.477-5.235-1.431-1.555-.952-2.787-2.235-3.695-3.85-.91-1.612-1.364-3.431-1.364-5.455,0-2.053.454-3.894,1.364-5.521.908-1.627,2.134-2.918,3.673-3.871,1.54-.953,3.278-1.43,5.214-1.43,1.584,0,2.998.315,4.245.945,1.246.632,2.266,1.512,3.058,2.64.792,1.13,1.261,2.442,1.408,3.938v6.468c-.176,1.496-.653,2.815-1.43,3.959-.778,1.145-1.782,2.031-3.014,2.662-1.232.63-2.64.946-4.224.946ZM1016.7,409.447c2.171,0,3.9-.718,5.191-2.155s1.937-3.329,1.937-5.676c0-1.554-.294-2.918-.88-4.092-.588-1.172-1.424-2.089-2.508-2.749-1.086-.66-2.348-.99-3.784-.99s-2.721.338-3.85,1.012c-1.129.676-2.023,1.6-2.684,2.772-.659,1.173-.989,2.522-.989,4.047s.33,2.875.989,4.048c.66,1.173,1.562,2.097,2.706,2.771s2.434,1.012,3.871,1.012ZM1023.651,411.955v-5.543l.616-5.104-.616-4.972v-5.06h3.124v20.678h-3.124Z"/>
      <path class="st17" d="M1032.935,411.955v-31.148h3.123v31.148h-3.123Z"/>
      <path class="st17" d="M1051.06,411.735c-1.937,0-3.667-.455-5.191-1.364-1.525-.908-2.728-2.155-3.607-3.739s-1.32-3.372-1.32-5.367.44-3.776,1.32-5.346c.88-1.568,2.082-2.808,3.607-3.718,1.524-.908,3.24-1.363,5.147-1.363,1.612,0,3.05.308,4.311.924s2.288,1.489,3.08,2.617c.792,1.13,1.261,2.457,1.408,3.981v5.852c-.177,1.496-.66,2.809-1.452,3.938-.792,1.13-1.812,2.01-3.058,2.64-1.247.631-2.662.946-4.245.946ZM1050.839,421.105c-2.082,0-3.938-.389-5.565-1.165-1.627-.777-2.94-1.87-3.938-3.278l2.024-2.023c.82,1.114,1.862,1.979,3.123,2.596s2.728.924,4.399.924c2.376,0,4.253-.631,5.632-1.892,1.378-1.262,2.067-2.978,2.067-5.147v-5.147l.616-4.707-.616-4.664v-5.323h3.124v19.842c0,1.994-.455,3.739-1.364,5.235s-2.185,2.662-3.827,3.498-3.535,1.253-5.676,1.253ZM1051.631,408.787c1.408,0,2.654-.308,3.74-.924,1.084-.615,1.92-1.488,2.507-2.617s.88-2.456.88-3.981c0-1.467-.301-2.765-.901-3.894-.602-1.129-1.438-2.009-2.508-2.64-1.071-.631-2.325-.946-3.762-.946s-2.721.315-3.85.946-2.009,1.511-2.64,2.64-.945,2.427-.945,3.894.322,2.771.968,3.915c.645,1.145,1.524,2.031,2.64,2.662,1.114.631,2.404.945,3.871.945Z"/>
      <path class="st17" d="M1077.279,412.396c-2.023,0-3.843-.484-5.455-1.452-1.613-.968-2.896-2.272-3.85-3.916-.953-1.642-1.43-3.476-1.43-5.499,0-1.994.477-3.798,1.43-5.411s2.236-2.896,3.85-3.85c1.612-.953,3.432-1.43,5.455-1.43,1.994,0,3.806.47,5.434,1.407,1.628.939,2.918,2.222,3.871,3.85s1.431,3.439,1.431,5.434c0,2.054-.478,3.894-1.431,5.521s-2.243,2.926-3.871,3.894-3.439,1.452-5.434,1.452ZM1077.279,409.403c1.437,0,2.728-.337,3.872-1.012,1.144-.675,2.038-1.612,2.684-2.815.645-1.202.968-2.552.968-4.048,0-1.466-.33-2.778-.99-3.938-.659-1.158-1.555-2.074-2.684-2.75-1.129-.674-2.413-1.012-3.85-1.012s-2.728.338-3.871,1.012c-1.144.676-2.039,1.592-2.684,2.75-.646,1.159-.968,2.472-.968,3.938,0,1.525.322,2.882.968,4.069.645,1.188,1.54,2.119,2.684,2.794s2.434,1.012,3.871,1.012Z"/>
      <path class="st17" d="M1092.854,411.955v-20.678h3.123v20.678h-3.123ZM1095.977,399.9l-1.275-.527c0-2.64.638-4.723,1.913-6.248,1.276-1.524,3.028-2.287,5.258-2.287,1.026,0,1.965.184,2.815.55.851.367,1.643.946,2.376,1.737l-2.068,2.156c-.469-.528-1.005-.909-1.605-1.144-.602-.234-1.283-.353-2.046-.353-1.584,0-2.875.514-3.871,1.54-.998,1.027-1.496,2.552-1.496,4.575Z"/>
      <path class="st17" d="M1111.858,386.834c-.587,0-1.085-.22-1.495-.66-.411-.439-.616-.952-.616-1.539,0-.616.205-1.129.616-1.54s.908-.616,1.495-.616c.646,0,1.166.206,1.562.616.396.411.594.924.594,1.54,0,.587-.198,1.1-.594,1.539-.396.44-.917.66-1.562.66ZM1110.319,411.955v-20.678h3.123v20.678h-3.123Z"/>
      <path class="st17" d="M1117.666,394.094v-2.816h13.507v2.816h-13.507ZM1122.857,411.955v-29.389h3.124v29.389h-3.124Z"/>
      <path class="st17" d="M1135.353,411.955v-31.148h3.123v31.148h-3.123ZM1150.442,411.955v-12.143c0-1.788-.543-3.248-1.628-4.377-1.086-1.129-2.508-1.694-4.268-1.694-1.174,0-2.215.257-3.124.771-.909.513-1.627,1.225-2.155,2.133-.528.91-.792,1.951-.792,3.124l-1.408-.792c0-1.554.367-2.947,1.101-4.18.732-1.231,1.73-2.199,2.991-2.903s2.684-1.056,4.268-1.056,2.991.359,4.224,1.078c1.231.719,2.192,1.708,2.882,2.969.688,1.262,1.033,2.729,1.033,4.399v12.671h-3.123Z"/>
      <path class="st17" d="M1159.285,411.955v-20.678h3.123v20.678h-3.123ZM1173.539,411.955v-12.671c0-1.7-.514-3.05-1.54-4.047-1.027-.997-2.317-1.496-3.871-1.496-1.057,0-2.018.228-2.882.682-.865.455-1.555,1.094-2.068,1.914-.513.821-.77,1.789-.77,2.903l-1.408-.571c0-1.584.353-2.962,1.057-4.136.704-1.173,1.649-2.082,2.837-2.728,1.188-.645,2.53-.968,4.026-.968,1.466,0,2.778.323,3.938.968,1.158.646,2.082,1.555,2.771,2.728.688,1.174,1.033,2.566,1.033,4.18v13.242h-3.123ZM1187.749,411.955v-12.671c0-1.7-.514-3.05-1.54-4.047s-2.317-1.496-3.871-1.496c-1.027,0-1.973.228-2.838.682-.865.455-1.555,1.094-2.067,1.914-.514.821-.771,1.789-.771,2.903l-1.848-.571c.088-1.584.506-2.962,1.254-4.136.748-1.173,1.73-2.082,2.948-2.728,1.217-.645,2.559-.968,4.025-.968s2.793.323,3.981.968c1.188.646,2.126,1.555,2.815,2.728.688,1.174,1.034,2.566,1.034,4.18v13.242h-3.124Z"/>
    </g>
  </g>
</svg>